<svg width="950" height="142" viewBox="0 0 950 142" fill="none" xmlns="http://www.w3.org/2000/svg">
<path d="M214.49 69.9506L214.678 139.839H227.214H239.75L239.938 69.9506L240.064 -3.82215e-05H227.214H214.365L214.49 69.9506Z" fill="#0070F3"/>
<path d="M743.508 69.8881L743.696 139.776L756.546 139.839L769.395 139.901L769.708 125.61L770.022 111.257L778.233 103.234C782.746 98.8461 786.695 95.2734 787.008 95.2734C787.321 95.2734 788.324 96.3389 789.202 97.6552C790.079 98.9088 795.282 106.242 800.797 113.952C806.251 121.662 812.205 130.123 814.023 132.756C819.288 140.34 817.22 139.713 835.397 139.901C851.505 140.089 852.696 139.901 850.126 137.833C849.562 137.332 846.679 133.696 843.796 129.747C840.85 125.798 835.585 118.716 832.137 114.077C828.627 109.376 822.861 101.541 819.225 96.5897C815.59 91.5753 810.826 85.3073 808.632 82.5494L804.684 77.535L825.556 56.976C837.089 45.631 846.24 36.3543 845.864 36.3543C845.551 36.3543 838.217 36.3543 829.568 36.3543L813.898 36.417L793.777 56.5999C782.746 67.6943 772.968 77.723 772.153 78.9139C770.022 81.7972 768.329 81.3585 769.081 78.0364C769.395 76.7828 769.646 58.731 769.646 37.8587L769.771 4.65041e-05H756.546H743.383L743.508 69.8881ZM767.201 3.13404C767.201 3.44744 766.95 3.76084 766.574 3.76084C766.261 3.76084 765.947 3.44744 765.947 3.13404C765.947 2.75796 766.261 2.50724 766.574 2.50724C766.95 2.50724 767.201 2.75796 767.201 3.13404ZM767.013 27.0777C766.825 27.5165 766.7 27.2031 766.7 26.3256C766.7 25.4481 766.825 25.1347 767.013 25.5107C767.138 25.9495 767.138 26.7017 767.013 27.0777ZM767.201 136.642C767.201 136.955 766.888 137.269 766.512 137.269C766.198 137.269 766.073 136.955 766.261 136.642C766.449 136.266 766.762 136.015 766.95 136.015C767.076 136.015 767.201 136.266 767.201 136.642Z" fill="#0070F3"/>
<path d="M0.438759 6.0801C0.188039 6.26814 0 11.5332 0 17.6759V28.8329H19.7441H39.4883V84.5552V140.278L52.651 140.34C62.9932 140.403 65.8138 140.278 65.8138 139.651C65.8138 139.212 65.8765 113.889 66.0019 83.3643L66.1272 27.8927L86.0594 27.5793L106.054 27.2659V16.6103V5.95474L53.4659 5.7667C24.5078 5.70402 0.626798 5.82938 0.438759 6.0801Z" fill="#0070F3"/>
<path d="M382.159 6.08005C381.908 6.26809 381.72 36.3544 381.72 72.8341V139.149H416.633C451.42 139.149 453.301 139.024 463.204 136.83C465.46 136.329 467.968 135.765 468.845 135.577C471.415 135.012 481.632 130.061 485.581 127.428C496.362 120.345 504.886 108.624 508.71 95.8375C511.53 86.4356 512.408 68.4465 510.527 58.6057C506.704 38.7362 497.114 24.1945 482.133 15.482C477.746 12.9748 471.227 10.0289 468.218 9.27672C467.027 8.96332 465.022 8.46188 463.831 8.0858C456.999 6.26809 445.403 5.64129 414.251 5.64129C396.826 5.64129 382.347 5.82933 382.159 6.08005ZM437.505 25.9496C451.295 26.3256 456.372 27.3285 464.646 31.4027C471.478 34.7874 477.746 41.1807 481.506 48.577C483.45 52.3378 483.763 53.2153 485.581 59.5459C486.96 64.3723 486.96 81.6719 485.643 86.4982C483.011 95.6495 480.692 99.7864 474.8 105.616C469.472 111.006 465.084 113.701 458.19 115.832C450.229 118.34 447.847 118.528 427.288 118.34L407.356 118.152V72.0819C407.294 46.7592 407.294 25.8242 407.356 25.6362C407.419 25.2601 410.678 25.2601 437.505 25.9496Z" fill="#0070F3"/>
<path d="M138.522 34.85C133.508 35.4768 128.807 36.8558 122.915 39.6137C105.302 47.6994 94.7093 65.187 94.6466 86.3728C94.6466 103.86 100.664 117.587 113.012 127.93C117.086 131.377 126.613 136.642 128.682 136.642C129.246 136.642 129.81 136.893 129.998 137.206C130.186 137.52 131.126 137.896 132.066 138.084C142.221 140.089 144.79 140.403 152.437 140.403C164.848 140.403 172.683 138.648 182.336 133.696C187.538 131.064 195.498 125.485 195.561 124.545C195.561 123.667 183.589 109.69 182.774 109.69C182.586 109.69 180.957 110.818 179.139 112.197C173.247 116.647 168.421 118.653 160.147 120.095C152.375 121.411 148.614 121.223 141.03 118.966C132.881 116.522 125.548 110.442 122.038 103.234C120.847 100.789 119.656 97.9686 119.468 97.0284L119.092 95.2734L159.959 95.148L200.889 94.96V85.8714C200.826 76.7828 200.45 74.3383 197.943 66.754C195.373 59.2325 190.86 52.1496 185.783 47.6994C183.276 45.4429 176.256 40.93 173.498 39.6137C169.424 37.796 169.11 37.7333 162.027 35.7275C159.458 35.0381 142.409 34.4113 138.522 34.85ZM156.95 54.1554C162.529 55.6597 165.914 57.4148 169.486 60.7995C173.435 64.4976 176.82 71.2043 176.945 75.5292L177.071 78.3498L148.05 78.5378L119.092 78.6632L119.154 77.0962C119.217 75.0905 120.909 70.0134 122.664 66.6914C125.422 61.4263 132.756 56.2865 140.34 54.1554C144.289 53.0898 152.813 53.0898 156.95 54.1554Z" fill="#0070F3"/>
<path d="M298.983 34.8501C285.945 36.4171 271.404 44.9416 264.571 55.0957C258.366 64.2469 255.734 73.3982 255.734 85.6834C255.734 100.915 258.93 111.319 266.64 121.16C271.968 127.93 281.871 134.574 290.834 137.457C299.233 140.215 316.533 141.406 323.929 139.776C325.559 139.4 328.317 138.836 330.009 138.46C338.722 136.579 350.318 130.499 355.207 125.234L356.648 123.73L353.828 120.283C347.998 113.325 344.614 109.69 343.987 109.69C343.611 109.69 341.856 110.818 340.101 112.134C334.585 116.397 327.627 119.217 319.855 120.408C315.718 121.035 313.65 121.035 309.513 120.408C295.222 118.277 287.199 112.636 281.996 101.228C279.991 96.8404 279.74 95.2734 280.994 95.2734C281.37 95.2734 299.798 95.2108 321.861 95.0854L361.976 94.96L362.164 88.0653C362.415 78.8513 360.973 71.6432 357.275 63.5575C350.506 48.8904 339.223 39.9898 321.861 35.7903C318.664 34.9755 302.994 34.3487 298.983 34.8501ZM316.533 54.1555C323.679 55.9105 327.126 57.7282 330.824 61.6771C334.773 65.8766 337.468 71.3924 337.531 75.3413V78.4126H309.011C276.418 78.4126 279.239 78.9767 281.119 72.458C282.435 68.0077 286.509 61.8024 289.831 59.4206C292.84 57.2268 297.604 54.9703 301.177 54.0928C304.875 53.1526 312.584 53.2153 316.533 54.1555Z" fill="#0070F3"/>
<path d="M566.939 35.1007C564.87 35.4141 562.175 35.9156 560.984 36.2917C559.793 36.6051 558.101 37.1065 557.223 37.2945C556.346 37.5452 554.465 38.2974 553.024 38.9242C551.52 39.551 550.203 40.1151 549.953 40.1151C549.765 40.1151 547.633 41.3687 545.189 42.9984C536.915 48.3262 528.704 57.8535 525.946 65.187C525.507 66.378 524.881 67.945 524.63 68.6344C521.872 75.5919 520.744 88.0652 522.123 95.3987C523.878 104.738 524.505 106.869 526.698 111.57C531.274 121.223 541.553 131.502 550.579 135.388C559.104 139.024 566.312 140.403 576.591 140.403C593.703 140.403 606.427 135.576 617.02 125.046C627.613 114.579 631.812 104.049 631.812 87.9398C631.812 71.9565 627.487 60.298 617.772 50.2693C611.88 44.1266 603.669 39.1122 596.398 37.1065C595.019 36.7304 592.638 36.1036 591.196 35.7275C587.686 34.7873 571.828 34.4113 566.939 35.1007ZM583.173 55.4717C590.882 57.2894 596.837 61.3636 600.974 67.6316C604.421 72.7713 605.111 74.4637 606.49 80.857C608.182 88.5666 607.117 96.2762 603.418 104.049C600.41 110.191 593.327 116.146 585.429 119.154C582.609 120.283 571.514 120.283 568.192 119.217C561.862 117.149 554.152 111.445 552.021 107.308C551.52 106.368 550.579 104.613 549.953 103.422C546.004 96.4643 545.252 85.4326 548.009 76.156C552.585 60.6114 567.628 51.7736 583.173 55.4717Z" fill="#0070F3"/>
<path d="M670.361 35.8529C664.531 37.2318 662.588 37.9213 658.138 40.2405C650.616 44.0013 645.101 49.9559 642.781 56.5372C641.528 60.1727 641.528 69.9507 642.844 74.3383C643.784 77.6603 646.918 82.424 649.614 84.7432C652.371 87.125 658.013 90.0709 662.839 91.6379C667.916 93.2676 672.116 94.1451 686.344 96.527C690.669 97.2791 695.621 98.282 697.438 98.7834C704.27 100.789 707.342 104.487 706.778 109.94C705.963 117.274 699.068 120.972 686.156 120.972C678.822 120.972 675.124 120.345 665.66 117.65C661.335 116.459 654.941 113.576 651.306 111.257L648.799 109.752L643.784 118.59C640.964 123.479 638.707 127.679 638.707 127.93C638.707 128.87 647.232 133.508 652.183 135.263C662.463 138.899 672.053 140.403 684.652 140.403C701.45 140.403 712.669 137.457 721.006 130.875C723.262 129.058 727.587 123.291 728.59 120.659C730.721 115.206 731.473 106.18 730.157 101.291C728.841 96.2762 725.77 90.9485 722.761 88.2532C716.806 82.9254 708.846 80.2302 691.985 77.7857C676.19 75.4665 670.674 73.5235 668.104 69.3866C666.725 67.0048 666.537 63.3067 667.791 60.8621C668.919 58.731 672.053 56.3492 675.375 55.221C678.321 54.1554 693.928 54.0927 696.623 55.1583C697.564 55.4717 699.068 55.7851 699.945 55.7851C700.886 55.7851 702.453 56.0358 703.518 56.4119C704.584 56.7253 707.592 57.6028 710.162 58.3549C712.732 59.1071 715.114 59.9846 715.427 60.298C716.932 61.5516 717.935 60.298 721.758 52.5884C724.014 48.0755 725.832 44.1266 725.832 43.8132C725.832 43.1238 719.251 40.1151 717.684 40.1151C717.057 40.1151 716.368 39.8644 716.18 39.551C715.991 39.3003 714.926 38.8615 713.798 38.6108C712.669 38.4228 710.476 37.9213 708.909 37.6079C701.011 35.7275 694.806 35.1634 684.15 35.2261C677.945 35.2261 671.74 35.5395 670.361 35.8529Z" fill="#0070F3"/>
<path d="M888.11 35.4142C887.922 35.5396 886.293 35.9157 884.412 36.2918C878.019 37.42 876.577 37.9214 868.742 41.5569C865.984 42.8731 856.833 48.8277 856.833 49.3292C856.833 49.7679 866.36 64.5603 866.674 64.5603C866.862 64.5603 867.739 64.0589 868.617 63.4321C875.637 58.6058 888.8 54.5316 897.512 54.5316C906.977 54.5316 913.433 56.6 917.946 61.113C921.644 64.8111 924.527 71.2671 924.527 75.9054V78.2245L902.777 78.4753C881.153 78.726 880.902 78.7887 875.324 80.481C864.731 83.6777 857.961 88.6294 854.514 95.7749C853.01 98.9089 852.759 100.225 852.571 106.869C852.383 113.325 852.508 114.955 853.699 118.465C856.958 128.243 865.044 135.577 876.327 139.087C891.495 143.788 911.427 140.528 922.208 131.502C924.151 129.873 925.217 129.309 925.405 129.873C925.53 130.311 925.969 132.255 926.408 134.135C927.912 140.591 926.909 140.09 939.006 140.09H949.662L949.474 105.616C949.286 80.9825 949.035 70.5776 948.471 69.2613C948.095 68.1958 947.155 65.5632 946.403 63.3067C942.14 50.5827 931.61 40.6793 918.573 37.1066C912.806 35.4769 908.857 35.1008 898.891 35.1008C893.125 35.1008 888.236 35.2262 888.11 35.4142ZM925.405 95.2735C925.342 96.151 925.091 99.5984 924.841 102.983L924.402 109.126L920.955 112.824C916.943 117.211 914.875 118.59 909.108 120.659C905.473 121.975 903.655 122.226 897.888 122.226C891.119 122.226 887.985 121.599 883.848 119.405C881.09 118.026 877.831 113.952 876.953 110.818C875.136 104.299 880.338 97.6553 889.427 95.0854C891.119 94.584 920.39 93.4557 924.527 93.7065C925.091 93.7065 925.468 94.3333 925.405 95.2735Z" fill="#0070F3"/>
</svg>
