<svg width="600" height="429" viewBox="0 0 600 429" fill="none" xmlns="http://www.w3.org/2000/svg">
<path d="M141.773 0.323212C132.744 2.18448 126.249 7.80788 123.833 15.9261C123.16 18.223 122.923 237.971 123.596 241.02C125.299 248.703 131.12 254.603 139.12 256.663C141.139 257.178 153.257 257.257 236.222 257.257C300.059 257.257 331.067 257.138 331.067 256.861C331.067 256.623 330.909 256.148 330.711 255.752C330.513 255.395 329.958 254.009 329.483 252.703C329.008 251.396 328.454 249.93 328.256 249.416C328.058 248.94 327.741 248.148 327.543 247.634C327.345 247.158 326.632 245.258 325.919 243.396C325.246 241.535 324.493 239.634 324.295 239.119L323.939 238.248H233.331C146.01 238.248 142.644 238.208 142.05 237.535C141.416 236.862 141.377 228.704 141.377 128.077C141.377 35.2516 141.456 19.2923 141.931 18.8963C142.723 18.2626 439.06 18.2626 439.852 18.8963C440.288 19.2527 440.367 28.4006 440.367 70.2196C440.367 110.89 440.486 121.068 440.882 120.751C441.119 120.553 443.139 119.602 445.317 118.652C447.495 117.741 450.069 116.632 451.059 116.197C452.049 115.761 453.475 115.128 454.228 114.811C454.98 114.494 456.604 113.741 457.792 113.187L459.97 112.118V65.1902C459.93 33.5091 459.811 17.7082 459.494 16.5994C458.465 12.4016 455.02 7.09505 451.891 4.87738C448.406 2.38249 446.426 1.47166 442.149 0.362823C440.367 -0.0727844 143.911 -0.152008 141.773 0.323212ZM458.584 111.128C458.584 111.326 458.386 111.524 458.148 111.524C457.95 111.524 457.871 111.326 457.99 111.128C458.108 110.89 458.306 110.732 458.425 110.732C458.504 110.732 458.584 110.89 458.584 111.128ZM456.881 112.157C456.762 112.276 456.406 112.316 456.128 112.197C455.812 112.078 455.93 111.959 456.366 111.959C456.802 111.92 457.039 112.039 456.881 112.157ZM449.753 115.326C449.634 115.444 449.277 115.484 449 115.365C448.683 115.246 448.802 115.128 449.238 115.128C449.673 115.088 449.911 115.207 449.753 115.326Z" fill="#0070F3"/>
<path d="M152.465 128.196V228.348H221.53C259.468 228.348 291.704 228.467 293.09 228.585C295.07 228.783 295.505 228.744 295.188 228.387C294.951 228.11 294.119 227.754 293.406 227.556C292.1 227.239 287.07 225.536 285.249 224.744C284.734 224.546 283.942 224.229 283.466 224.031C282.952 223.873 280.972 222.922 279.031 221.972C270.279 217.695 265.567 209.814 266.913 201.775C267.19 200.191 267.547 198.607 267.705 198.251C267.903 197.934 268.458 196.785 268.933 195.716C271.032 191.439 276.853 186.529 282.635 184.232C284.1 183.638 285.882 182.885 286.516 182.608C287.189 182.331 292.694 180.113 298.792 177.658C304.891 175.242 310.514 172.945 311.267 172.629C312.019 172.312 313.049 171.876 313.563 171.678C314.039 171.48 314.87 171.124 315.425 170.926C315.979 170.688 316.85 170.332 317.405 170.134C317.959 169.896 318.791 169.579 319.306 169.381C320.415 168.946 321.801 168.391 323.543 167.639C326.394 166.411 342.868 159.837 343.106 159.837C343.264 159.837 344.215 159.481 345.245 159.006C346.274 158.531 347.462 158.016 347.898 157.857C348.333 157.699 349.521 157.184 350.551 156.709C351.581 156.234 352.61 155.877 352.769 155.877C352.967 155.877 353.64 155.64 354.274 155.323C354.907 155.006 357.759 153.818 360.57 152.709C363.422 151.6 366.273 150.452 366.906 150.135C370.867 148.472 373.56 147.323 379.381 144.987C382.985 143.522 386.549 142.056 387.301 141.74C388.054 141.423 389.044 141.027 389.479 140.829C391.657 139.997 393.717 139.165 396.093 138.096C397.122 137.621 398.073 137.265 398.192 137.265C398.31 137.265 399.261 136.908 400.29 136.433C401.32 135.958 402.548 135.443 403.063 135.245C403.538 135.047 404.369 134.691 404.924 134.493C405.478 134.255 406.31 133.938 406.825 133.701C407.3 133.502 412.488 131.364 418.349 128.988C424.17 126.612 429.12 124.513 429.318 124.315C429.516 124.117 429.675 103.089 429.675 76.3578V28.7173L292.377 28.5193C216.817 28.4401 154.445 28.2421 153.772 28.1629L152.465 28.0045V128.196ZM409.201 29.549H428.883L428.803 76.5558L428.685 123.602L426.507 124.671C425.318 125.265 421.913 126.731 418.982 127.919C416.052 129.107 411.22 131.087 408.29 132.314C405.359 133.542 402.152 134.809 401.162 135.166C400.211 135.483 398.508 136.195 397.4 136.671C396.33 137.185 392.766 138.651 389.479 139.997C386.232 141.304 380.965 143.482 377.797 144.789C374.629 146.135 371.381 147.482 370.589 147.759C369.797 148.076 366.946 149.224 364.253 150.373C361.6 151.482 358.353 152.828 357.006 153.303C354.709 154.174 314.237 170.49 311.861 171.52C310.237 172.233 306.118 173.856 293.565 178.846C287.664 181.222 281.447 183.836 279.784 184.667C270.279 189.34 264.814 198.251 266.121 206.844C266.953 212.111 268.26 214.606 272.14 218.249C275.309 221.219 277.645 222.566 284.456 225.338C286.793 226.288 288.852 227.16 288.971 227.318C289.129 227.437 258.676 227.516 221.332 227.477L153.455 227.358L153.336 128.75C153.297 74.4965 153.336 29.9054 153.455 29.5886C153.653 29.1133 170.721 29.0737 271.586 29.2717C336.413 29.4302 398.35 29.549 409.201 29.549Z" fill="#0070F3"/>
<path d="M203.274 48.9536C196.225 50.8149 186.681 57.8639 185.968 61.8241C185.612 63.6061 186.641 65.8238 188.265 66.8139C189.572 67.6059 191.869 67.8039 192.859 67.1703C193.413 66.8139 194.839 67.6851 194.839 68.3583C194.839 68.6355 196.819 72.2392 197.928 73.9421C198.284 74.5361 199.195 76.0014 199.947 77.2686L201.254 79.4863L200.224 81.8228C199.432 83.5256 199.155 84.8721 199.116 86.7729C199.076 89.149 199.195 89.5054 200.145 90.4559C201.809 92.1191 203.868 91.8419 209.254 89.1886L213.649 87.0105L216.223 89.6638C217.649 91.1291 220.342 94.02 222.243 96.0792C224.144 98.1385 225.688 99.6434 225.688 99.4058C225.728 98.7721 214.323 86.1789 213.729 86.1789C213.451 86.1789 212.738 86.5353 212.065 86.9709C210.877 87.8026 208.937 88.753 206.165 89.9014C204.066 90.7727 201.294 90.8519 200.502 90.0202C199.393 88.951 199.789 84.5157 201.175 81.6644L202.363 79.3279L201.016 77.4666C199.551 75.4469 194.839 67.2495 194.839 66.7743C194.839 65.9822 193.809 65.6654 193.096 66.2198C190.958 67.7643 187.196 66.101 186.681 63.4477C186.245 60.9529 188.859 57.6659 194.047 54.2602C199.116 50.8941 204.501 48.7952 207.353 49.0328C210.6 49.3101 211.115 52.597 208.382 55.5275L206.917 57.0719L208.778 59.844C209.808 61.3489 211.55 63.8438 212.659 65.3882C213.768 66.8931 215.035 68.7543 215.511 69.4671C216.144 70.4968 216.501 70.7344 217.174 70.5364C219.035 69.982 223.668 69.8632 225.173 70.3384C227.153 71.0116 227.668 71.7244 227.708 73.7441C227.708 75.2093 227.47 75.5658 225.451 77.5458C224.183 78.7339 222.362 80.1991 221.372 80.8327C220.382 81.4267 219.51 81.9812 219.431 82.0604C218.956 82.496 223.708 92.7131 226.322 96.8713C228.381 100.158 227.629 98.0989 224.342 91.4855C222.48 87.8026 220.857 84.2384 220.738 83.6048C220.54 82.4564 220.698 82.2188 223.312 80.3179C224.817 79.1695 226.639 77.5854 227.312 76.7538C228.381 75.4865 228.5 75.0113 228.421 73.3085C228.302 71.6056 228.143 71.2492 226.995 70.4572C225.371 69.3879 221.926 68.9127 219.114 69.4275L216.976 69.8236L215.669 68.1999C213.649 65.7446 208.303 57.8243 208.303 57.3095C208.303 57.0719 208.937 56.0819 209.689 55.0522C210.521 53.983 211.075 52.795 211.075 52.1614C211.075 50.6169 209.729 49.0724 207.986 48.5576C206.244 48.0824 206.719 48.0428 203.274 48.9536Z" fill="#0070F3"/>
<path d="M261.963 74.1401C261.765 74.2193 259.072 74.6549 256.023 75.0906C250.637 75.8826 248.34 76.1994 241.766 77.0706C230.995 78.4171 229.569 78.8131 226.876 80.7932C225.411 81.8624 224.975 82.496 224.579 83.9613C224.144 85.7037 224.223 85.9809 225.49 88.7134C226.203 90.2975 227.47 92.7132 228.262 94.0596C229.807 96.7525 231.272 100.633 231.272 102.178C231.272 103.643 230.044 104.95 228.935 104.594C227.629 104.198 223.708 100.871 218.718 95.9605C216.263 93.5448 214.164 91.6835 214.006 91.8023C213.649 92.1587 220.263 98.9306 223.748 101.742C225.371 103.089 226.797 104.277 226.916 104.435C227.034 104.554 227.787 104.91 228.619 105.227C230.123 105.742 230.203 105.742 231.153 104.594C232.975 102.495 232.024 99.1286 227.193 90.3371C225.173 86.6146 224.738 84.9513 225.45 83.5653C226.203 82.1396 227.074 81.3476 229.133 80.2783C230.955 79.3279 232.975 78.9319 240.182 78.0607C243.033 77.7439 246.479 77.3082 247.904 77.1102C249.33 76.9122 251.904 76.5162 253.647 76.2786C259.191 75.4866 261.527 75.1302 263.666 74.7738C266.477 74.2985 266.913 74.6549 267.309 78.1003C267.467 79.6051 268.101 83.6049 268.695 86.971C269.764 93.03 270.16 95.6041 270.873 100.237C271.071 101.544 271.428 103.762 271.665 105.188C271.903 106.613 272.299 108.91 272.497 110.336C272.734 111.761 273.091 113.781 273.249 114.89C273.447 115.959 273.804 117.939 274.002 119.246C274.239 120.553 274.596 122.691 274.833 123.998C275.269 126.612 275.823 130.018 276.417 133.78C276.615 135.166 276.972 137.344 277.209 138.651C278.318 145.304 278.358 145.106 275.784 148.789C274.517 150.61 270.636 156.313 267.111 161.421C259.428 172.668 259.032 173.183 258.24 173.54C257.884 173.698 256.379 173.975 254.835 174.134C253.33 174.292 250.716 174.609 249.092 174.846C243.667 175.678 241.014 176.074 238.202 176.43C236.697 176.668 234.202 177.024 232.658 177.262C231.153 177.5 228.737 177.856 227.312 178.054C225.886 178.292 224.104 178.569 223.352 178.688C221.768 178.925 215.233 179.915 211.669 180.43C209.253 180.747 197.611 182.529 193.651 183.163C192.463 183.361 191.195 183.361 190.839 183.202C190.205 182.846 189.69 180.945 188.898 175.876C188.344 172.391 187.79 168.906 187.314 166.372C186.681 162.966 185.651 156.709 184.938 151.917C184.661 150.294 184.344 148.155 184.146 147.165C183.829 145.502 183.592 143.918 182.562 136.948C182.325 135.483 181.889 132.79 181.572 130.928C181.255 129.067 180.741 125.582 180.424 123.206C180.067 120.791 179.592 117.781 179.394 116.474C179.156 115.167 178.8 113.029 178.602 111.722C178.404 110.415 178.048 108.276 177.81 106.97C177.572 105.663 177.216 103.524 176.978 102.217C176.78 100.911 176.464 98.693 176.226 97.2673C175.988 95.8417 175.672 93.7032 175.434 92.5152C175.236 91.3271 174.959 89.4263 174.8 88.3174L174.563 86.3373L177.85 85.8621C179.671 85.5849 182.523 85.1889 184.146 84.9513C185.77 84.7533 188.027 84.3969 189.096 84.1989C190.205 84.0009 191.908 83.8029 192.977 83.7237C195.116 83.6445 195.551 83.0108 193.453 83.0108C192.225 83.0108 184.74 83.9613 178.048 84.9909C176.582 85.2285 174.998 85.5849 174.602 85.8225C173.731 86.2581 173.652 87.763 174.206 90.8123C174.404 91.8419 174.761 93.9408 174.998 95.4853C175.276 96.9901 176.107 101.98 176.86 106.574C177.652 111.128 178.404 115.88 178.602 117.068C179.275 121.424 179.869 125.226 180.226 127.76C180.424 129.186 181.018 132.909 181.533 136.077C182.047 139.245 182.76 143.759 183.156 146.175C183.513 148.551 183.948 151.402 184.186 152.511C184.384 153.58 185.097 157.857 185.73 162.016C186.404 166.134 187.196 170.965 187.512 172.708C187.829 174.45 188.186 176.589 188.304 177.46C188.7 180.272 189.413 182.608 190.007 183.281C190.918 184.351 190.997 184.351 206.521 182.014C209.57 181.579 214.204 180.866 216.817 180.43C219.431 179.995 223.629 179.361 226.124 179.044C231.47 178.331 240.341 177.024 249.29 175.638C250.597 175.44 252.973 175.084 254.597 174.886C259.428 174.252 258.636 175.084 269.566 159.125C271.269 156.669 272.932 154.254 273.249 153.739C273.566 153.224 274.952 151.204 276.338 149.224C278.041 146.729 278.793 145.225 278.793 144.393C278.793 143.324 277.526 134.968 275.784 124.79C275.031 120.315 274.675 118.137 273.685 111.722C273.249 108.871 272.14 102.297 271.269 97.0693C270.358 91.8419 269.487 86.6542 269.329 85.5849C267.903 76.8726 267.547 75.2094 266.992 74.5757C266.557 74.1005 265.844 73.9025 264.379 73.9421C263.27 73.9421 262.2 74.0213 261.963 74.1401Z" fill="#0070F3"/>
<path d="M195.393 86.0601C195.947 90.2579 196.304 92.3567 196.739 93.3468C197.69 95.6832 201.412 96.6337 205.175 95.5248C207.511 94.8516 213.253 91.8023 212.897 91.4459C212.778 91.3271 211.036 92.0399 209.016 93.0696C204.699 95.2476 201.848 95.7624 199.472 94.7724C197.65 93.9804 197.096 92.8319 196.383 87.8422C196.106 85.8621 195.71 84.1988 195.512 84.1988C195.274 84.1988 195.235 84.9909 195.393 86.0601Z" fill="#0070F3"/>
<path d="M473.038 120.315C471.296 120.87 469.553 121.582 466.425 122.968C465.395 123.444 464.445 123.8 464.326 123.8C464.246 123.8 462.979 124.315 461.554 124.988C460.128 125.622 458.861 126.176 458.782 126.176C458.583 126.176 457.158 126.81 452.683 128.79C451.534 129.344 448.168 130.77 445.159 131.958C440.406 133.938 438.347 134.809 432.843 137.146C432.09 137.502 430.863 138.017 430.189 138.294C429.477 138.611 428.209 139.126 427.417 139.482C426.586 139.839 425.556 140.274 425.12 140.433C424.685 140.591 423.536 141.106 422.546 141.542C418.547 143.324 417.002 143.997 416.844 143.997C416.725 143.997 414.705 144.828 412.369 145.818C410.032 146.809 406.587 148.234 404.726 149.026C399.894 151.046 396.132 152.67 393.717 153.739C392.568 154.254 391.538 154.689 391.459 154.689C391.34 154.689 390.39 155.046 389.36 155.521C388.331 155.996 387.143 156.511 386.707 156.669C386.271 156.828 385.083 157.342 384.054 157.818C383.024 158.293 382.074 158.649 381.955 158.649C381.876 158.649 380.846 159.085 379.698 159.6C378.549 160.115 375.183 161.54 372.253 162.728C356.056 169.381 353.125 170.609 350.313 171.955C349.68 172.272 349.007 172.51 348.809 172.51C348.65 172.51 347.7 172.866 346.71 173.302C345.72 173.737 344.136 174.45 343.146 174.886C342.156 175.321 341.284 175.678 341.166 175.678C341.047 175.678 340.096 176.034 339.067 176.51C338.037 176.985 336.849 177.5 336.413 177.658C335.978 177.816 334.552 178.41 333.245 178.965C330.394 180.192 320.731 184.192 314.633 186.647C312.257 187.637 309.643 188.707 308.89 189.024C308.138 189.34 307.108 189.776 306.633 189.974C306.118 190.172 305.326 190.489 304.851 190.687C304.336 190.885 303.109 191.4 302.079 191.875C301.049 192.35 300.099 192.706 299.98 192.706C299.861 192.706 299.03 193.023 298.079 193.459C297.168 193.855 295.347 194.607 294.04 195.122C286.595 197.934 283.506 199.993 282.714 202.607C281.486 206.725 283.862 209.101 291.822 211.715C294 212.428 297.921 213.893 300.376 214.883C300.812 215.042 302.237 215.596 303.544 216.071C304.851 216.546 306.316 217.101 306.831 217.299C307.306 217.497 308.098 217.814 308.613 218.012C309.088 218.21 310.118 218.566 310.87 218.843C312.177 219.279 312.613 219.477 314.949 220.388C316.137 220.863 322.078 223.12 324.731 224.071C325.919 224.506 327.265 225.021 327.701 225.219C328.137 225.378 329.681 225.932 331.107 226.368C332.572 226.843 334.037 227.397 334.394 227.674C334.988 228.11 336.136 230.882 337.641 235.476C337.958 236.466 338.393 237.614 338.552 238.05C338.75 238.486 339.106 239.476 339.383 240.228C339.661 240.98 340.017 241.971 340.175 242.406C340.334 242.842 340.69 243.832 340.968 244.584C341.245 245.337 341.601 246.327 341.76 246.762C341.918 247.198 342.274 248.188 342.552 248.94C343.146 250.604 343.7 252.069 344.175 252.98C344.373 253.376 344.532 253.97 344.532 254.287C344.532 254.603 344.69 255.197 344.928 255.593C345.126 255.95 345.561 257.059 345.878 258.049C346.551 260.029 349.719 269.137 352.848 277.849C353.957 281.017 354.986 283.948 355.105 284.384C355.224 284.819 355.462 285.334 355.62 285.572C355.778 285.77 356.016 286.443 356.135 286.997C357.046 290.759 362.59 292.7 365.6 290.245C368.292 288.066 376.45 280.542 384.529 272.899C391.895 265.85 393.598 264.306 394.35 263.751C395.301 263.078 395.063 262.92 409.24 273.295C414.626 277.216 420.051 281.136 421.279 282.007C422.507 282.879 425.952 285.374 428.883 287.552C441.515 296.937 443.693 298.046 447.97 297.254C450.228 296.818 452.326 295.393 453.475 293.531C454.663 291.591 454.861 290.839 456.96 279.433C457.158 278.443 457.593 276.226 457.95 274.483C458.306 272.741 458.782 270.325 458.98 269.137C459.178 267.949 459.89 264.266 460.564 261.019C461.554 255.95 462.742 249.732 464.603 239.832C464.959 237.773 465.316 235.991 466.147 231.912C466.345 230.922 466.702 229.061 466.939 227.754C467.415 225.1 467.929 222.407 468.286 220.625C468.405 219.952 468.682 218.447 468.919 217.259C469.157 216.071 469.474 214.368 469.672 213.497C469.989 211.992 470.504 209.379 471.296 205.181C472.484 198.765 473.949 191.281 474.424 188.944C474.622 188.073 474.978 186.212 475.216 184.786C475.454 183.361 475.81 181.499 476.008 180.628C476.404 178.688 476.84 176.391 478.186 169.144C479.691 160.827 480.76 155.085 481.196 153.105C481.394 152.115 481.909 149.462 482.344 147.165C483.255 142.334 483.81 139.522 484.126 137.859C484.285 137.185 484.562 135.76 484.76 134.69C485.473 131.126 485.631 126.651 485.077 125.265C484.364 123.404 482.384 121.464 480.443 120.592C478.543 119.761 475.018 119.642 473.038 120.315ZM481.829 122.493C483.493 123.8 484.681 126.335 484.681 128.552C484.681 129.305 484.443 131.364 484.126 133.106C483.77 134.849 483.374 137.146 483.176 138.255C482.978 139.324 481.79 145.383 480.562 151.719C479.374 158.016 477.909 165.619 477.355 168.55C476.246 174.411 476.127 175.084 474.464 183.796C473.83 187.043 472.919 191.796 472.444 194.291C471.969 196.785 471.335 200.191 470.979 201.815C470.662 203.438 470.226 205.775 470.068 206.963C469.87 208.151 469.276 211.279 468.721 213.893C467.613 219.398 465.593 229.734 463.336 241.812C462.425 246.485 461.039 253.811 460.168 258.049C459.336 262.286 458.267 267.83 457.791 270.325C457.039 274.364 456.405 277.731 454.98 284.978C453.792 291.037 453.277 292.7 452.089 294.007C450.624 295.67 449.079 296.224 445.911 296.224C443.02 296.264 442.822 296.185 440.169 294.482C438.624 293.492 435.971 291.67 434.229 290.403C432.486 289.136 430.189 287.472 429.081 286.72C428.011 285.968 426.11 284.582 424.843 283.671C420.329 280.305 405.835 269.731 400.884 266.207C396.172 262.801 395.538 262.405 394.667 262.405C393.796 262.405 388.885 258.762 378.747 250.564C370.946 244.267 367.5 241.337 367.5 240.98C367.5 240.822 368.094 240.347 368.807 239.911C369.48 239.515 372.213 237.139 374.827 234.684C384.687 225.378 419.576 190.053 429.279 179.519C430.902 177.737 433.674 174.767 435.417 172.906C447.099 160.392 450.505 156.511 451.732 154.174C452.366 152.947 452.287 150.689 451.614 150.452C451.336 150.373 451.218 150.689 451.336 151.283C451.653 152.907 451.218 153.976 449.04 156.669C446.901 159.402 446.347 159.996 438.189 168.748C435.377 171.797 432.169 175.282 431.061 176.47C423.695 184.588 385.519 223.318 375.817 232.506C372.53 235.634 368.609 239.159 366.669 240.703C366.233 241.06 365.877 242.485 365.56 244.782C365.283 246.723 364.926 249.495 364.728 250.92C364.53 252.346 364.174 254.92 363.936 256.663C363.699 258.405 363.342 260.9 363.144 262.207C362.233 268.068 361.956 270.365 361.956 271.672C361.956 272.82 361.798 273.097 361.204 273.097C360.412 273.097 360.174 272.622 358.788 267.949C358.313 266.325 357.758 264.623 357.56 264.187C357.402 263.751 356.491 261.058 355.58 258.247C354.67 255.395 353.798 252.742 353.6 252.306C353.442 251.871 351.185 245.257 348.611 237.575L343.977 223.635L345.086 222.447C345.68 221.813 347.898 220.111 349.997 218.685C352.135 217.259 354.828 215.398 356.016 214.527C357.204 213.656 359.62 211.953 361.362 210.765C363.105 209.577 367.104 206.805 370.273 204.626C373.441 202.448 377.797 199.439 379.975 197.973C382.153 196.469 384.093 195.122 384.331 194.964C384.529 194.766 386.786 193.182 389.281 191.479C391.776 189.736 395.617 187.083 397.795 185.578C399.974 184.073 403.102 181.895 404.726 180.786C406.349 179.678 410.032 177.143 412.844 175.163C415.695 173.183 419.972 170.213 422.348 168.55C424.764 166.886 427.774 164.748 429.081 163.837C430.387 162.926 433.239 160.907 435.417 159.402C437.595 157.897 440.288 156.036 441.357 155.244C443.535 153.699 448.287 150.808 449.871 150.056L450.861 149.62L449.832 149.581C448.644 149.541 443.931 152.511 433.476 159.798C429.556 162.57 424.962 165.738 423.338 166.886C421.715 167.995 418.943 169.936 417.2 171.203C415.458 172.431 410.943 175.559 407.181 178.133C403.419 180.707 399.221 183.598 397.875 184.588C396.528 185.539 393.717 187.479 391.657 188.905C389.598 190.33 384.41 193.895 380.173 196.865C375.936 199.795 369.837 203.993 366.629 206.171C363.421 208.309 359.501 211.042 357.917 212.19C356.333 213.378 353.878 215.121 352.452 216.071C347.66 219.239 344.334 221.893 343.779 222.962C343.264 223.912 343.779 225.655 351.462 248.782C355.976 262.405 359.937 273.652 360.174 273.77C360.451 273.85 360.808 274.76 360.966 275.79C361.085 276.82 362.115 280.225 363.184 283.394C364.808 288.265 365.006 289.215 364.57 289.69C363.857 290.363 361.243 290.324 359.541 289.611C357.838 288.898 357.204 287.71 354.63 280.225C353.838 277.929 352.293 273.572 351.185 270.523C350.115 267.474 348.611 263.276 347.898 261.217C347.185 259.158 346.036 255.95 345.324 254.089C344.136 250.841 341.364 243.159 338.987 236.466C335.463 226.526 335.938 227.16 330.038 225.061C326.949 223.952 321.365 221.893 316.533 220.071C314.712 219.398 311.861 218.329 310.197 217.695C308.494 217.061 304.97 215.754 302.356 214.764C299.743 213.774 295.822 212.309 293.644 211.517C287.506 209.299 287.387 209.26 285.803 208.27C284.06 207.161 282.952 205.022 283.348 203.438C284.06 200.627 286.634 198.884 294.792 195.716C297.406 194.687 300.099 193.617 300.851 193.3C304.019 191.875 304.891 191.518 307.504 190.528C309.049 189.934 311.068 189.103 312.059 188.667C313.049 188.232 314.197 187.756 314.633 187.558C315.068 187.4 316.415 186.845 317.603 186.37C322.196 184.509 326.196 182.846 328.295 181.895C329.483 181.38 332.176 180.232 334.235 179.44C336.295 178.608 339.621 177.262 341.562 176.391C346.116 174.45 346.353 174.331 348.571 173.341C349.601 172.866 350.63 172.51 350.868 172.51C351.105 172.51 351.581 172.351 351.977 172.114C352.967 171.559 357.046 169.777 359.778 168.748C362.392 167.758 383.618 158.966 385.519 158.055C386.192 157.778 387.697 157.144 388.885 156.669C390.073 156.194 391.974 155.402 393.162 154.848C394.311 154.333 395.34 153.897 395.419 153.897C395.499 153.897 396.766 153.343 398.191 152.709C399.617 152.036 400.884 151.521 400.964 151.521C401.043 151.521 403.577 150.452 406.587 149.185C409.597 147.917 415.537 145.383 419.774 143.601C424.012 141.819 428.051 140.116 428.684 139.799C430.823 138.849 441.199 134.492 441.357 134.492C441.436 134.492 445.317 132.869 449.95 130.889C460.643 126.295 460.841 126.216 462.742 125.384C465.197 124.315 468.088 123.167 470.464 122.295C471.652 121.86 472.919 121.384 473.236 121.266C473.553 121.147 475.295 121.107 477.077 121.147C480.047 121.266 480.483 121.384 481.829 122.493ZM367.382 244.267C367.263 244.584 367.144 244.465 367.144 244.03C367.104 243.594 367.223 243.357 367.342 243.515C367.461 243.634 367.5 243.99 367.382 244.267Z" fill="#0070F3"/>
<path d="M135.516 383.031L135.635 427.186H143.555H151.475L151.594 383.031L151.673 338.835H143.555H135.437L135.516 383.031Z" fill="#0070F3"/>
<path d="M469.751 382.991L469.87 427.147L477.988 427.186L486.107 427.226L486.305 418.197L486.503 409.128L491.69 404.059C494.542 401.287 497.037 399.03 497.235 399.03C497.433 399.03 498.066 399.703 498.621 400.534C499.175 401.326 502.462 405.96 505.947 410.831C509.392 415.702 513.154 421.048 514.303 422.711C517.629 427.503 516.322 427.107 527.807 427.226C537.984 427.345 538.737 427.226 537.113 425.919C536.757 425.602 534.935 423.305 533.113 420.81C531.252 418.315 527.926 413.84 525.748 410.91C523.53 407.94 519.887 402.99 517.59 399.861C515.293 396.693 512.283 392.733 510.897 390.991L508.402 387.822L521.589 374.833C528.876 367.665 534.658 361.804 534.42 361.804C534.222 361.804 529.589 361.804 524.124 361.804L514.224 361.844L501.511 374.596C494.542 381.605 488.364 387.941 487.849 388.694C486.503 390.515 485.433 390.238 485.909 388.139C486.107 387.347 486.265 375.942 486.265 362.755L486.344 338.836H477.988H469.672L469.751 382.991ZM484.721 340.816C484.721 341.014 484.562 341.212 484.324 341.212C484.126 341.212 483.928 341.014 483.928 340.816C483.928 340.578 484.126 340.42 484.324 340.42C484.562 340.42 484.721 340.578 484.721 340.816ZM484.602 355.943C484.483 356.221 484.404 356.023 484.404 355.468C484.404 354.914 484.483 354.716 484.602 354.953C484.681 355.23 484.681 355.706 484.602 355.943ZM484.721 425.166C484.721 425.364 484.523 425.562 484.285 425.562C484.087 425.562 484.008 425.364 484.126 425.166C484.245 424.929 484.443 424.77 484.562 424.77C484.641 424.77 484.721 424.929 484.721 425.166Z" fill="#0070F3"/>
<path d="M0.277209 342.677C0.118804 342.796 0 346.122 0 350.003V357.052H12.4744H24.9488V392.258V427.463L33.2651 427.503C39.7994 427.543 41.5814 427.463 41.5814 427.067C41.5814 426.79 41.621 410.791 41.7002 391.505L41.7794 356.458L54.3726 356.26L67.0055 356.062V349.33V342.598L33.7799 342.479C15.4841 342.439 0.396013 342.518 0.277209 342.677Z" fill="#0070F3"/>
<path d="M241.449 342.677C241.291 342.796 241.172 361.804 241.172 384.852V426.751H263.23C285.209 426.751 286.397 426.671 292.654 425.285C294.08 424.968 295.664 424.612 296.218 424.493C297.842 424.137 304.297 421.008 306.792 419.345C313.603 414.87 318.989 407.465 321.405 399.386C323.187 393.446 323.741 382.08 322.553 375.863C320.137 363.309 314.078 354.122 304.614 348.617C301.842 347.033 297.723 345.172 295.822 344.697C295.07 344.499 293.802 344.182 293.05 343.944C288.733 342.796 281.407 342.4 261.725 342.4C250.716 342.4 241.568 342.518 241.449 342.677ZM276.417 355.23C285.13 355.468 288.337 356.102 293.565 358.676C297.881 360.814 301.842 364.854 304.218 369.527C305.445 371.903 305.643 372.457 306.792 376.457C307.663 379.506 307.663 390.436 306.831 393.485C305.168 399.267 303.703 401.881 299.98 405.564C296.614 408.97 293.842 410.672 289.486 412.019C284.457 413.603 282.952 413.722 269.962 413.603L257.369 413.484V384.377C257.33 368.378 257.33 355.151 257.369 355.032C257.409 354.795 259.468 354.795 276.417 355.23Z" fill="#0070F3"/>
<path d="M87.519 360.854C84.3509 361.25 81.3808 362.121 77.6583 363.864C66.5303 368.972 59.8377 380.021 59.7981 393.406C59.7981 404.455 63.5998 413.128 71.4013 419.662C73.9754 421.84 79.9948 425.166 81.3016 425.166C81.658 425.166 82.0145 425.325 82.1333 425.523C82.2521 425.721 82.8461 425.958 83.4401 426.077C89.8555 427.345 91.4792 427.543 96.3105 427.543C104.152 427.543 109.102 426.434 115.2 423.305C118.487 421.642 123.517 418.117 123.556 417.523C123.556 416.969 115.992 408.138 115.478 408.138C115.359 408.138 114.329 408.851 113.181 409.722C109.458 412.534 106.409 413.801 101.182 414.712C96.2709 415.543 93.8949 415.424 89.1031 413.999C83.9549 412.454 79.3216 408.613 77.1039 404.059C76.3515 402.514 75.599 400.732 75.4802 400.138L75.2426 399.03L101.063 398.95L126.922 398.832V393.089C126.883 387.347 126.645 385.803 125.061 381.011C123.437 376.259 120.586 371.784 117.378 368.972C115.794 367.546 111.359 364.695 109.617 363.864C107.043 362.715 106.844 362.676 102.37 361.408C100.746 360.973 89.9743 360.577 87.519 360.854ZM99.1618 373.051C102.686 374.001 104.825 375.11 107.082 377.249C109.577 379.585 111.715 383.823 111.795 386.555L111.874 388.337L93.5384 388.456L75.2426 388.535L75.2822 387.545C75.3218 386.278 76.3911 383.07 77.4999 380.971C79.2424 377.645 83.8757 374.398 88.6675 373.051C91.1624 372.378 96.5481 372.378 99.1618 373.051Z" fill="#0070F3"/>
<path d="M188.898 360.854C180.661 361.844 171.474 367.23 167.157 373.645C163.237 379.427 161.573 385.209 161.573 392.971C161.573 402.594 163.593 409.168 168.464 415.385C171.83 419.662 178.087 423.86 183.75 425.681C189.057 427.424 199.987 428.176 204.66 427.147C205.689 426.909 207.432 426.553 208.501 426.315C214.006 425.127 221.332 421.286 224.421 417.959L225.332 417.009L223.55 414.831C219.867 410.435 217.728 408.138 217.332 408.138C217.095 408.138 215.986 408.851 214.877 409.682C211.392 412.375 206.996 414.157 202.086 414.91C199.472 415.306 198.165 415.306 195.551 414.91C186.522 413.563 181.453 409.999 178.166 402.792C176.899 400.02 176.741 399.03 177.533 399.03C177.77 399.03 189.413 398.99 203.353 398.911L228.698 398.832L228.817 394.475C228.975 388.654 228.064 384.1 225.728 378.991C221.451 369.725 214.322 364.101 203.353 361.448C201.333 360.933 191.433 360.537 188.898 360.854ZM199.987 373.051C204.501 374.16 206.679 375.308 209.016 377.803C211.511 380.457 213.214 383.941 213.253 386.436V388.377H195.235C174.642 388.377 176.424 388.733 177.612 384.615C178.444 381.803 181.018 377.882 183.117 376.378C185.017 374.992 188.027 373.566 190.284 373.012C192.621 372.417 197.492 372.457 199.987 373.051Z" fill="#0070F3"/>
<path d="M358.194 361.012C356.887 361.21 355.184 361.527 354.432 361.765C353.68 361.963 352.61 362.279 352.056 362.398C351.501 362.557 350.313 363.032 349.403 363.428C348.452 363.824 347.621 364.18 347.462 364.18C347.343 364.18 345.997 364.972 344.452 366.002C339.225 369.368 334.037 375.388 332.295 380.021C332.018 380.773 331.622 381.763 331.463 382.199C329.721 386.595 329.008 394.475 329.879 399.109C330.988 405.009 331.384 406.356 332.77 409.326C335.661 415.424 342.156 421.919 347.858 424.374C353.244 426.671 357.798 427.543 364.293 427.543C375.104 427.543 383.143 424.493 389.836 417.84C396.528 411.227 399.182 404.574 399.182 394.396C399.182 384.298 396.449 376.932 390.311 370.596C386.588 366.715 381.401 363.547 376.807 362.279C375.936 362.042 374.431 361.646 373.52 361.408C371.302 360.814 361.283 360.577 358.194 361.012ZM368.451 373.883C373.322 375.031 377.084 377.605 379.698 381.565C381.876 384.813 382.311 385.882 383.183 389.921C384.252 394.792 383.579 399.663 381.242 404.574C379.341 408.455 374.866 412.217 369.877 414.118C368.094 414.83 361.085 414.83 358.986 414.157C354.986 412.85 350.115 409.247 348.769 406.633C348.452 406.039 347.858 404.93 347.462 404.178C344.967 399.782 344.492 392.812 346.235 386.951C349.125 377.13 358.63 371.546 368.451 373.883Z" fill="#0070F3"/>
<path d="M423.536 361.487C419.853 362.359 418.626 362.794 415.814 364.26C411.062 366.636 407.577 370.398 406.112 374.556C405.32 376.853 405.32 383.031 406.151 385.803C406.745 387.902 408.725 390.911 410.428 392.377C412.171 393.881 415.735 395.743 418.784 396.733C421.992 397.762 424.645 398.317 433.635 399.822C436.367 400.297 439.496 400.93 440.644 401.247C444.961 402.514 446.901 404.851 446.545 408.296C446.03 412.93 441.674 415.266 433.516 415.266C428.883 415.266 426.546 414.87 420.566 413.167C417.834 412.415 413.794 410.593 411.498 409.128L409.914 408.177L406.745 413.761C404.963 416.85 403.538 419.503 403.538 419.662C403.538 420.256 408.924 423.186 412.052 424.295C418.547 426.592 424.606 427.543 432.566 427.543C443.179 427.543 450.267 425.681 455.534 421.523C456.96 420.375 459.692 416.731 460.326 415.068C461.673 411.623 462.148 405.92 461.316 402.831C460.484 399.663 458.544 396.297 456.643 394.594C452.881 391.228 447.852 389.525 437.199 387.981C427.219 386.516 423.734 385.288 422.111 382.674C421.24 381.169 421.121 378.833 421.913 377.288C422.626 375.942 424.606 374.437 426.705 373.724C428.566 373.051 438.427 373.011 440.129 373.685C440.723 373.883 441.674 374.081 442.228 374.081C442.822 374.081 443.812 374.239 444.486 374.477C445.159 374.675 447.06 375.229 448.683 375.704C450.307 376.18 451.812 376.734 452.01 376.932C452.96 377.724 453.594 376.932 456.01 372.061C457.435 369.21 458.584 366.715 458.584 366.517C458.584 366.081 454.425 364.18 453.435 364.18C453.039 364.18 452.604 364.022 452.485 363.824C452.366 363.666 451.693 363.388 450.98 363.23C450.267 363.111 448.881 362.794 447.891 362.596C442.901 361.408 438.981 361.052 432.249 361.091C428.328 361.091 424.408 361.289 423.536 361.487Z" fill="#0070F3"/>
<path d="M561.111 361.21C560.993 361.29 559.963 361.527 558.775 361.765C554.736 362.478 553.825 362.794 548.875 365.091C547.132 365.923 541.35 369.685 541.35 370.002C541.35 370.279 547.37 379.625 547.568 379.625C547.687 379.625 548.241 379.308 548.795 378.912C553.231 375.863 561.547 373.289 567.052 373.289C573.031 373.289 577.11 374.596 579.962 377.447C582.298 379.783 584.12 383.862 584.12 386.793V388.258L570.378 388.416C556.716 388.575 556.557 388.614 553.033 389.684C546.34 391.703 542.063 394.832 539.885 399.346C538.935 401.326 538.776 402.158 538.658 406.356C538.539 410.435 538.618 411.464 539.37 413.682C541.43 419.86 546.538 424.493 553.666 426.711C563.25 429.681 575.843 427.622 582.655 421.919C583.882 420.89 584.555 420.533 584.674 420.89C584.753 421.167 585.031 422.394 585.308 423.582C586.258 427.661 585.625 427.345 593.268 427.345H600L599.881 405.564C599.762 390 599.604 383.427 599.248 382.595C599.01 381.922 598.416 380.259 597.941 378.833C595.248 370.794 588.595 364.537 580.358 362.28C576.714 361.25 574.22 361.012 567.923 361.012C564.28 361.012 561.191 361.092 561.111 361.21ZM584.674 399.03C584.635 399.584 584.476 401.762 584.318 403.901L584.041 407.781L581.863 410.118C579.328 412.89 578.021 413.761 574.378 415.068C572.081 415.9 570.933 416.058 567.289 416.058C563.012 416.058 561.032 415.662 558.419 414.276C556.676 413.405 554.617 410.831 554.062 408.851C552.914 404.732 556.201 400.534 561.943 398.911C563.012 398.594 581.506 397.881 584.12 398.04C584.476 398.04 584.714 398.436 584.674 399.03Z" fill="#0070F3"/>
</svg>
